<svg xmlns="http://www.w3.org/2000/svg" width="43.412" height="30.332" viewBox="0 0 43.412 30.332">
  <g id="Group_124" data-name="Group 124" transform="translate(-39.221 -99.55)">
    <g id="jc" transform="translate(50.726 103.311)">
      <g id="Group_125" data-name="Group 125" transform="translate(0 0)">
        <path id="Path_35" data-name="Path 35" d="M152.048,157.675c1.116,0,2.009-.415,2.009-2.137V138.507h3.508v16.776c0,4.465-2.392,5.613-5.039,5.613a14.416,14.416,0,0,1-1.69-.064v-3.189C151.219,157.675,151.665,157.675,152.048,157.675Z" transform="translate(-150.836 -138.252)" fill="#dbdee6"/>
        <path id="Path_36" data-name="Path 36" d="M246.994,153.255c0,3.572-1.786,5.613-5.231,5.613s-5.231-2.041-5.231-5.613v-11.61c0-3.572,1.786-5.613,5.231-5.613s5.231,2.041,5.231,5.613v2.169h-3.317v-2.392c0-1.595-.7-2.2-1.818-2.2s-1.818.606-1.818,2.2v12.056c0,1.595.7,2.169,1.818,2.169s1.818-.574,1.818-2.169v-3.189h3.317Z" transform="translate(-227.699 -136.032)" fill="#dbdee6"/>
      </g>
    </g>
    <g id="_" data-name=" " transform="translate(39.22 99.55)">
      <g id="Group_126" data-name="Group 126" transform="translate(0 0)">
        <path id="Path_37" data-name="Path 37" d="M39.22,99.55h7.043v2.375H42.276v25.581h3.987v2.375H39.22Z" transform="translate(-39.22 -99.55)" fill="#dbdee6"/>
      </g>
    </g>
    <g id="_2" data-name=" 2" transform="translate(75.589 99.55)">
      <g id="Group_127" data-name="Group 127" transform="translate(0 0)">
        <path id="Path_38" data-name="Path 38" d="M399.06,99.55v30.332h-7.043v-2.375H396V101.925h-3.987V99.55Z" transform="translate(-392.017 -99.55)" fill="#dbdee6"/>
      </g>
    </g>
  </g>
</svg>
