<svg xmlns="http://www.w3.org/2000/svg" viewBox="0 0 56 60"><title>Asset 2</title><g id="Layer_2" data-name="Layer 2"><g id="Layer_1-2" data-name="Layer 1"><path d="M17,60H5a5,5,0,0,1-5-5V5A5,5,0,0,1,5,0H17a.9.9,0,0,1,1,1,.9.9,0,0,1-1,1H5A2.9,2.9,0,0,0,2,5V55a2.9,2.9,0,0,0,3,3H17a1,1,0,0,1,0,2Z"/><path d="M51,60H26a5,5,0,0,1-5-5V5a5,5,0,0,1,5-5H51a5,5,0,0,1,5,5V55A5,5,0,0,1,51,60ZM26,2a2.9,2.9,0,0,0-3,3V55a2.9,2.9,0,0,0,3,3H51a2.9,2.9,0,0,0,3-3V5a2.9,2.9,0,0,0-3-3Z"/><path d="M35,37H29a2,2,0,0,1-2-2V29a2,2,0,0,1,2-2h6a2,2,0,0,1,2,2v6A2,2,0,0,1,35,37Zm-6-7.5v5a.5.5,0,0,0,.5.5h5a.5.5,0,0,0,.5-.5v-5a.5.5,0,0,0-.5-.5h-5A.5.5,0,0,0,29,29.5Z"/><path d="M48,37H42a2,2,0,0,1-2-2V29a2,2,0,0,1,2-2h6a2,2,0,0,1,2,2v6A2,2,0,0,1,48,37Zm-6-7.5v5a.5.5,0,0,0,.5.5h5a.5.5,0,0,0,.5-.5v-5a.5.5,0,0,0-.5-.5h-5A.5.5,0,0,0,42,29.5Z"/><path d="M35,21H29a2,2,0,0,1-2-2V13a2,2,0,0,1,2-2h6a2,2,0,0,1,2,2v6A2,2,0,0,1,35,21Zm-6-7.5v5a.5.5,0,0,0,.5.5h5a.5.5,0,0,0,.5-.5v-5a.5.5,0,0,0-.5-.5h-5A.5.5,0,0,0,29,13.5Z"/><path d="M48,21H42a2,2,0,0,1-2-2V13a2,2,0,0,1,2-2h6a2,2,0,0,1,2,2v6A2,2,0,0,1,48,21Zm-6-7.5v5a.5.5,0,0,0,.5.5h5a.5.5,0,0,0,.5-.5v-5a.5.5,0,0,0-.5-.5h-5A.5.5,0,0,0,42,13.5Z"/><path d="M35,53H29a2,2,0,0,1-2-2V45a2,2,0,0,1,2-2h6a2,2,0,0,1,2,2v6A2,2,0,0,1,35,53Zm-6-7.5v5a.5.5,0,0,0,.5.5h5a.5.5,0,0,0,.5-.5v-5a.5.5,0,0,0-.5-.5h-5A.5.5,0,0,0,29,45.5Z"/><path d="M14,37H8a2,2,0,0,1-2-2V29a2,2,0,0,1,2-2h6a2,2,0,0,1,2,2v6A2,2,0,0,1,14,37ZM8,29.5v5a.5.5,0,0,0,.5.5h5a.5.5,0,0,0,.5-.5v-5a.5.5,0,0,0-.5-.5h-5A.5.5,0,0,0,8,29.5Z"/><path d="M14,21H8a2,2,0,0,1-2-2V13a2,2,0,0,1,2-2h6a2,2,0,0,1,2,2v6A2,2,0,0,1,14,21ZM8,13.5v5a.5.5,0,0,0,.5.5h5a.5.5,0,0,0,.5-.5v-5a.5.5,0,0,0-.5-.5h-5A.5.5,0,0,0,8,13.5Z"/><path d="M14,53H8a2,2,0,0,1-2-2V45a2,2,0,0,1,2-2h6a2,2,0,0,1,2,2v6A2,2,0,0,1,14,53ZM8,45.5v5a.5.5,0,0,0,.5.5h5a.5.5,0,0,0,.5-.5v-5a.5.5,0,0,0-.5-.5h-5A.5.5,0,0,0,8,45.5Z"/><path d="M48,53H42a2,2,0,0,1-2-2V45a2,2,0,0,1,2-2h6a2,2,0,0,1,2,2v6A2,2,0,0,1,48,53Zm-6-7.5v5a.5.5,0,0,0,.5.5h5a.5.5,0,0,0,.5-.5v-5a.5.5,0,0,0-.5-.5h-5A.5.5,0,0,0,42,45.5Z"/></g></g></svg>