<svg xmlns="http://www.w3.org/2000/svg" viewBox="0 0 60 48"><title>Asset 1</title><g id="Layer_2" data-name="Layer 2"><g id="Layer_1-2" data-name="Layer 1"><path d="M37,39H5a5.2,5.2,0,0,1-5-5.4V5.4A5.2,5.2,0,0,1,5,0H55a5.2,5.2,0,0,1,5,5.4V8a1,1,0,0,1-2,0V5.4A3.2,3.2,0,0,0,55,2H5A3.2,3.2,0,0,0,2,5.4V33.6A3.2,3.2,0,0,0,5,37H37a1,1,0,0,1,0,2Z"/><path d="M55,48H45a5,5,0,0,1-5-5V16a5,5,0,0,1,5-5H55a5,5,0,0,1,5,5V43A5,5,0,0,1,55,48ZM45,13a2.9,2.9,0,0,0-3,3V43a2.9,2.9,0,0,0,3,3H55a2.9,2.9,0,0,0,3-3V16a2.9,2.9,0,0,0-3-3Z"/><path d="M37,48H22.8a2,2,0,0,1-2-1.5,1.9,1.9,0,0,1,1.1-2.3L26,42.4V38a1,1,0,0,1,2,0v4.4a2.1,2.1,0,0,1-1.2,1.8l-3.2,1.4c-.2.1-.2.4.1.4H37a1,1,0,0,1,0,2Z"/><path d="M37,32H1a1,1,0,0,1,0-2H37a1,1,0,0,1,0,2Z"/></g></g></svg>